<?xml version="1.0" encoding="UTF-8"?><svg id="Layer_1" xmlns="http://www.w3.org/2000/svg" viewBox="0 0 158 158"><defs><style>.cls-1{fill:#fd0;}.cls-2{fill:#303863;}</style></defs><rect class="cls-1" width="158" height="158" rx="12.16" ry="12.16"/><g id="gwI8x0.tif"><g><path class="cls-2" d="m103.61,113.7v-.67c0-24.4,0-48.8,0-73.19,0-.74,0-.74-.76-.74-17.19,0-34.38,0-51.56,0-.14,0-.29.01-.52.03,0,.25,0,.48,0,.7,0,4.75,0,9.5,0,14.26,0,2.58-1.55,4.62-3.98,5.3-3.33.93-6.78-1.6-6.81-5.07-.04-5.21-.05-10.42,0-15.62.05-4.9,3.86-9.31,8.7-10.18.73-.13,1.48-.2,2.22-.2,17.52-.01,35.03-.01,52.55,0,5.08,0,9.28,3.16,10.56,8.01.27,1.01.39,2.08.39,3.13.02,24.05.02,48.1.01,72.16,0,1.24.02,2.48-.11,3.7-.42,4.12-3.88,7.97-7.91,8.93-2.52.6-4.94.39-7.3-.67-4.33-1.95-8.65-3.9-13-5.82-.46-.21-1.02-.3-1.53-.3-17.46-.02-34.92-.01-52.38-.01-2.26,0-4.37-.54-6.23-1.85-3.03-2.12-4.72-5.03-4.73-8.76-.03-10.67,0-21.34-.02-32.01,0-1.15-.08-2.28.37-3.37.82-1.98,2.97-3.3,4.85-3.3,16.44.03,32.88.03,49.32,0,2.42,0,4.86,1.81,5.28,4.47.44,2.8-1.14,5.33-3.8,6.07-.71.2-1.47.27-2.21.27-13.93.02-27.86.01-41.79.01-.22,0-.44.02-.65,0-.5-.06-.61.17-.61.63.02,3.17,0,6.34,0,9.5,0,5.57,0,11.14,0,16.71,0,.8,0,.8.82.8,17.68,0,35.36,0,53.04-.01,1.47,0,2.8.28,4.13.96,2.34,1.18,4.76,2.17,7.15,3.24,1.96.88,3.92,1.75,5.88,2.63.16.07.33.14.61.26Z"/><path class="cls-2" d="m138.4,78.99c0,14.4,0,28.8,0,43.2,0,2.68-1.57,4.72-4.14,5.39-3.2.84-6.49-1.62-6.62-4.95,0-.15,0-.29,0-.44,0-28.8,0-57.6,0-86.4,0-2.28.99-3.98,3.01-4.98,3.55-1.77,7.68.79,7.75,4.76.02,1.2,0,2.4,0,3.6,0,13.27,0,26.54,0,39.81Z"/></g></g></svg>